<svg preserveAspectRatio="none" width="100%" height="100%" overflow="visible" style="display: block;" viewBox="0 0 44.8685 50" fill="none" xmlns="http://www.w3.org/2000/svg">
<path id="Rectangle 1000003430" d="M8.89648 0.617188C14.3624 0.731354 19.7389 2.15943 22.2227 6.73633C22.8547 7.90101 23.5248 9.8408 24.1758 12.1348C24.8234 14.4171 25.4423 17.0106 25.9795 19.458C26.5164 21.9044 26.9705 24.1998 27.291 25.8838C27.4512 26.7256 27.5785 27.4145 27.665 27.8926C27.7083 28.1315 27.7413 28.3179 27.7637 28.4443C27.7749 28.5076 27.7834 28.5565 27.7891 28.5889C27.7919 28.6048 27.7935 28.6169 27.7949 28.625C27.7956 28.6289 27.7965 28.6318 27.7969 28.6338V28.6367L27.7988 28.6455V28.6465L27.7998 28.6484C27.8001 28.6498 27.8003 28.6518 27.8008 28.6543C27.8018 28.6594 27.8028 28.667 27.8047 28.6768C27.8086 28.6965 27.8146 28.7259 27.8223 28.7637C27.8376 28.8393 27.861 28.95 27.8916 29.0928C27.9529 29.3784 28.0448 29.7924 28.1689 30.3066C28.4171 31.3348 28.7938 32.7671 29.3066 34.3867C30.329 37.6157 31.9074 41.6321 34.1221 44.6641C36.0123 47.2517 38.2144 48.6938 40.1318 49.4971H39.5811C31.412 49.4969 23.5468 45.0636 21.1631 37.377C20.4118 34.9542 20.0384 33.0158 19.7188 31.0625C19.3994 29.1111 19.1298 27.1206 18.5879 24.6426C17.7068 20.6131 17.2371 16.7175 16.5801 13.1475C15.9314 9.62299 15.1036 6.45073 13.4932 4.08691C12.3306 2.38055 10.659 1.29824 8.89648 0.617188Z" fill="url(#paint0_linear_0_5)" stroke="url(#paint1_linear_0_5)"/>
<defs>
<linearGradient id="paint0_linear_0_5" x1="22.4343" y1="2.48353e-09" x2="22.4343" y2="50" gradientUnits="userSpaceOnUse">
<stop stop-color="#FFDC69"/>
<stop offset="0.134726" stop-color="#FFE280"/>
<stop offset="0.501244" stop-color="#B48735"/>
<stop offset="0.869842" stop-color="#FFE280"/>
<stop offset="1" stop-color="#FFD466"/>
</linearGradient>
<linearGradient id="paint1_linear_0_5" x1="22.4343" y1="2.48353e-09" x2="22.4343" y2="50" gradientUnits="userSpaceOnUse">
<stop stop-color="#F9DA7A" stop-opacity="0"/>
<stop offset="0.102059" stop-color="#FFF5D7"/>
<stop offset="0.201474" stop-color="#F9DA7A"/>
<stop offset="0.489351" stop-color="#B48835"/>
<stop offset="0.710522" stop-color="#FFDF7C"/>
<stop offset="0.817846" stop-color="#FFF3CD"/>
<stop offset="1" stop-color="#FFDF7C"/>
</linearGradient>
</defs>
</svg>
