<svg width="42" height="50" viewBox="0 0 42 50" fill="none" xmlns="http://www.w3.org/2000/svg">
<path d="M35.9717 0.617188C30.5057 0.731354 25.1293 2.15943 22.6455 6.73633C22.0135 7.90101 21.3433 9.8408 20.6924 12.1348C20.0448 14.4171 19.4258 17.0106 18.8887 19.458C18.3517 21.9044 17.8977 24.1998 17.5771 25.8838C17.4169 26.7256 17.2897 27.4145 17.2031 27.8926C17.1599 28.1315 17.1269 28.3179 17.1045 28.4443C17.0933 28.5076 17.0848 28.5565 17.0791 28.5889C17.0763 28.6048 17.0746 28.6169 17.0732 28.625C17.0726 28.6289 17.0716 28.6318 17.0713 28.6338V28.6367L17.0693 28.6455V28.6465L17.0684 28.6484C17.0681 28.6498 17.0679 28.6518 17.0674 28.6543C17.0664 28.6594 17.0654 28.667 17.0635 28.6768C17.0596 28.6965 17.0536 28.7259 17.0459 28.7637C17.0306 28.8393 17.0072 28.95 16.9766 29.0928C16.9153 29.3784 16.8234 29.7924 16.6992 30.3066C16.451 31.3348 16.0743 32.7671 15.5615 34.3867C14.5391 37.6157 12.9608 41.6321 10.7461 44.6641C8.85587 47.2517 6.65378 48.6938 4.73633 49.4971H5.28711C13.4562 49.4969 21.3214 45.0636 23.7051 37.377C24.4564 34.9542 24.8297 33.0158 25.1494 31.0625C25.4688 29.1111 25.7384 27.1206 26.2803 24.6426C27.1614 20.6131 27.631 16.7175 28.2881 13.1475C28.9367 9.62299 29.7646 6.45073 31.375 4.08691C32.5375 2.38055 34.2092 1.29824 35.9717 0.617188Z" fill="url(#paint0_linear_777_674)" stroke="url(#paint1_linear_777_674)"/>
<defs>
<linearGradient id="paint0_linear_777_674" x1="22.4339" y1="0" x2="22.4339" y2="50" gradientUnits="userSpaceOnUse">
<stop stop-color="#FFDC69"/>
<stop offset="0.134726" stop-color="#FFE280"/>
<stop offset="0.501244" stop-color="#B48735"/>
<stop offset="0.869842" stop-color="#FFE280"/>
<stop offset="1" stop-color="#FFD466"/>
</linearGradient>
<linearGradient id="paint1_linear_777_674" x1="22.4339" y1="0" x2="22.4339" y2="50" gradientUnits="userSpaceOnUse">
<stop stop-color="#F9DA7A" stop-opacity="0"/>
<stop offset="0.102059" stop-color="#FFF5D7"/>
<stop offset="0.201474" stop-color="#F9DA7A"/>
<stop offset="0.489351" stop-color="#B48835"/>
<stop offset="0.710522" stop-color="#FFDF7C"/>
<stop offset="0.817846" stop-color="#FFF3CD"/>
<stop offset="1" stop-color="#FFDF7C"/>
</linearGradient>
</defs>
</svg>
