<svg preserveAspectRatio="none" width="100%" height="100%" overflow="visible" style="display: block;" viewBox="0 0 34 32" fill="none" xmlns="http://www.w3.org/2000/svg">
<g id="Vector">
<path fill-rule="evenodd" clip-rule="evenodd" d="M20.4305 29.8751C20.4305 28.7016 19.4779 27.7502 18.3028 27.7502H15.6972C15.1329 27.7502 14.5917 27.9741 14.1927 28.3726C13.7936 28.7711 13.5695 29.3116 13.5695 29.8751C13.5695 31.0486 14.5221 32 15.6972 32H18.3028C19.4779 32 20.4305 31.0486 20.4305 29.8751ZM4.47319 24.3959C4.8286 24.4231 5.25858 24.4386 5.69048 24.4134C5.92058 25.5787 6.49221 26.6595 7.34546 27.5116C8.47822 28.6428 10.0145 29.2783 11.6164 29.2783H12.4283C12.3925 29.4739 12.3741 29.6736 12.3741 29.8751C12.3741 30.0789 12.3925 30.2785 12.4278 30.472H11.6164C9.6975 30.472 7.85712 29.7107 6.50024 28.3557C5.41775 27.2746 4.71365 25.8863 4.47319 24.3959ZM3.86518 23.1258C2.92148 22.9669 2.04332 22.5189 1.35781 21.8342C0.488418 20.966 0 19.7885 0 18.5606V15.7394C0 14.5115 0.488418 13.334 1.35781 12.4658C2.2272 11.5976 3.40637 11.1098 4.63589 11.1098H4.94448C5.43774 4.89229 10.6468 0 17 0C23.3532 0 28.5623 4.89229 29.0555 11.1098H29.3641C30.5936 11.1098 31.7728 11.5976 32.6422 12.4658C33.5116 13.334 34 14.5115 34 15.7394V18.5606C34 19.7885 33.5116 20.966 32.6422 21.8342C31.7728 22.7025 30.5936 23.1903 29.3641 23.1903H27.9961C27.4287 23.1903 26.9688 22.7309 26.9688 22.1644V12.0772C26.9688 6.57916 22.5056 2.1221 17 2.1221C11.4944 2.1221 7.03123 6.57916 7.03123 12.0772V22.1644C7.03123 22.5644 6.80193 22.911 6.46737 23.0802C5.54645 23.3993 4.11825 23.1684 3.86518 23.1258Z" fill="var(--fill-0, black)"/>
<path d="M16.1033 8.81699C16.4701 8.07374 17.5299 8.07374 17.8967 8.81699L18.8246 10.697C18.9702 10.9921 19.2518 11.1967 19.5775 11.244L21.6522 11.5455C22.4725 11.6647 22.8 12.6727 22.2064 13.2512L20.7052 14.7146C20.4695 14.9443 20.3619 15.2753 20.4176 15.5997L20.772 17.6661C20.9121 18.483 20.0547 19.1059 19.321 18.7202L17.4653 17.7446C17.174 17.5915 16.826 17.5915 16.5347 17.7446L14.679 18.7202C13.9453 19.1059 13.0879 18.483 13.228 17.6661L13.5824 15.5997C13.6381 15.2753 13.5305 14.9443 13.2948 14.7146L11.7936 13.2512C11.2 12.6727 11.5275 11.6647 12.3478 11.5455L14.4225 11.244C14.7482 11.1967 15.0298 10.9921 15.1754 10.697L16.1033 8.81699Z" fill="var(--fill-0, black)"/>
</g>
</svg>
